<svg width="100" height="100" viewBox="0 0 100 100" fill="none" xmlns="http://www.w3.org/2000/svg">
<path d="M90.625 12.5H25C21.5482 12.5 18.75 15.2982 18.75 18.75V56.25C18.75 59.7018 21.5482 62.5 25 62.5H90.625C94.0768 62.5 96.875 59.7018 96.875 56.25V18.75C96.875 15.2982 94.0768 12.5 90.625 12.5Z" fill="#CD3232"/>
<path d="M84.375 12.5H25C21.5482 12.5 18.75 15.2982 18.75 18.75V56.25C18.75 59.7018 21.5482 62.5 25 62.5H84.375C87.8268 62.5 90.625 59.7018 90.625 56.25V18.75C90.625 15.2982 87.8268 12.5 84.375 12.5Z" fill="#FF4646"/>
<path d="M75 37.5H9.375C5.92324 37.5 3.125 40.2982 3.125 43.75V81.25C3.125 84.7018 5.92324 87.5 9.375 87.5H75C78.4518 87.5 81.25 84.7018 81.25 81.25V43.75C81.25 40.2982 78.4518 37.5 75 37.5Z" fill="#32283C"/>
<path d="M68.75 37.5H9.375C5.92324 37.5 3.125 40.2982 3.125 43.75V81.25C3.125 84.7018 5.92324 87.5 9.375 87.5H68.75C72.2018 87.5 75 84.7018 75 81.25V43.75C75 40.2982 72.2018 37.5 68.75 37.5Z" fill="#463C4B"/>
<path d="M25 59.375H15.625C13.899 59.375 12.5 57.976 12.5 56.25V50C12.5 48.274 13.899 46.875 15.625 46.875H25C26.726 46.875 28.125 48.274 28.125 50V56.25C28.125 57.976 26.726 59.375 25 59.375Z" fill="#E6E6EB"/>
<path d="M48.4375 81.25C52.7522 81.25 56.25 77.7522 56.25 73.4375C56.25 69.1228 52.7522 65.625 48.4375 65.625C44.1228 65.625 40.625 69.1228 40.625 73.4375C40.625 77.7522 44.1228 81.25 48.4375 81.25Z" fill="#A5C3DC"/>
<path d="M60.9375 81.25C65.2522 81.25 68.75 77.7522 68.75 73.4375C68.75 69.1228 65.2522 65.625 60.9375 65.625C56.6228 65.625 53.125 69.1228 53.125 73.4375C53.125 77.7522 56.6228 81.25 60.9375 81.25Z" fill="#E6E6EB"/>
<path d="M90.625 18.75H18.75V31.25H90.625V18.75Z" fill="#463C4B"/>
<path d="M90.625 31.25H96.875V18.75H90.625V31.25Z" fill="#32283C"/>
</svg>
