<svg width="858" height="418" viewBox="0 0 858 418" fill="none" xmlns="http://www.w3.org/2000/svg">
<rect x="254.5" y="0.5" width="299" height="49" rx="9.5" fill="#ABC9FF" stroke="black"/>
<g filter="url(#filter0_d_75_17)">
<rect x="254.5" y="60.5" width="499" height="299" rx="9.5" fill="white" stroke="black"/>
<rect x="584.5" y="112.5" width="149" height="24" fill="white" stroke="black"/>
<rect x="254.5" y="80.5" width="249" height="279" fill="black" stroke="black"/>
<path d="M264 60.5H744C749.247 60.5 753.5 64.7533 753.5 70V79.5H254.5V70C254.5 64.7533 258.753 60.5 264 60.5Z" fill="white" stroke="black"/>
<circle cx="274" cy="70" r="5" fill="#FF0000"/>
<path d="M269 225C269 222.239 271.239 220 274 220H314C316.761 220 319 222.239 319 225V225C319 227.761 316.761 230 314 230H274C271.239 230 269 227.761 269 225V225Z" fill="#79D70F"/>
<circle cx="289" cy="70" r="5" fill="#1363DF"/>
<path d="M329 225C329 222.239 331.239 220 334 220H374C376.761 220 379 222.239 379 225V225C379 227.761 376.761 230 374 230H334C331.239 230 329 227.761 329 225V225Z" fill="#600607"/>
<circle cx="304" cy="70" r="5" fill="#F8D323"/>
<rect x="269" y="100" width="100" height="10" rx="5" fill="#79D70F"/>
<rect x="329" y="130" width="100" height="10" rx="5" fill="#79D70F"/>
<rect x="389" y="220" width="100" height="10" rx="5" fill="#63BCE7"/>
<path d="M379 105C379 102.239 381.239 100 384 100H424C426.761 100 429 102.239 429 105V105C429 107.761 426.761 110 424 110H384C381.239 110 379 107.761 379 105V105Z" fill="#1363DF"/>
<path d="M439 105C439 102.239 441.239 100 444 100H484C486.761 100 489 102.239 489 105V105C489 107.761 486.761 110 484 110H444C441.239 110 439 107.761 439 105V105Z" fill="#E16736"/>
<path d="M439 135C439 132.239 441.239 130 444 130H484C486.761 130 489 132.239 489 135V135C489 137.761 486.761 140 484 140H444C441.239 140 439 137.761 439 135V135Z" fill="#003363"/>
<path d="M269 135C269 132.239 271.239 130 274 130H314C316.761 130 319 132.239 319 135V135C319 137.761 316.761 140 314 140H274C271.239 140 269 137.761 269 135V135Z" fill="#E16736"/>
<path d="M269 165C269 162.239 271.239 160 274 160H284C286.761 160 289 162.239 289 165V165C289 167.761 286.761 170 284 170H274C271.239 170 269 167.761 269 165V165Z" fill="#F3AA7E"/>
<path d="M299 165C299 162.239 301.239 160 304 160H314C316.761 160 319 162.239 319 165V165C319 167.761 316.761 170 314 170H304C301.239 170 299 167.761 299 165V165Z" fill="white"/>
<path d="M269 195C269 192.239 271.239 190 274 190H314C316.761 190 319 192.239 319 195V195C319 197.761 316.761 200 314 200H274C271.239 200 269 197.761 269 195V195Z" fill="#6969D1"/>
<path d="M329 195C329 192.239 331.239 190 334 190H374C376.761 190 379 192.239 379 195V195C379 197.761 376.761 200 374 200H334C331.239 200 329 197.761 329 195V195Z" fill="#6AE184"/>
<circle opacity="0.7" cx="549" cy="125" r="25" fill="#FFC44D"/>
<circle opacity="0.7" cx="549" cy="125" r="10" fill="#E7723E"/>
<path d="M579.381 258.681V329.683H624V340H568.498V258.681H579.381Z" fill="black" fill-opacity="0.15"/>
<path d="M591.843 318.479C591.843 316.795 592.127 315.339 592.693 314.11C593.237 312.858 593.986 311.891 594.938 311.208C595.89 310.526 596.99 310.184 598.237 310.184C599.348 310.184 600.368 310.503 601.297 311.14C602.204 311.777 602.885 312.574 603.338 313.53C603.474 312.847 603.757 312.175 604.188 311.515C604.619 310.856 605.208 310.309 605.957 309.877C606.705 309.422 607.634 309.194 608.745 309.194C610.015 309.194 611.16 309.558 612.18 310.287C613.2 311.015 614.017 312.062 614.629 313.427C615.218 314.77 615.513 316.363 615.513 318.206C615.513 319.617 615.422 321.096 615.241 322.644C615.082 324.169 614.89 325.466 614.663 326.535H592.693C592.421 325.352 592.217 324.066 592.081 322.678C591.922 321.267 591.843 319.867 591.843 318.479ZM594.734 318.684C594.734 319.64 594.768 320.505 594.836 321.278C594.904 322.029 595.006 322.758 595.142 323.463H602.284V318.104C602.284 316.556 601.898 315.373 601.127 314.554C600.334 313.734 599.416 313.325 598.373 313.325C597.557 313.325 596.888 313.575 596.366 314.076C595.822 314.576 595.414 315.236 595.142 316.056C594.87 316.852 594.734 317.728 594.734 318.684ZM612.214 323.463C612.373 322.644 612.486 321.734 612.554 320.732C612.6 319.731 612.622 318.912 612.622 318.274C612.622 316.568 612.271 315.157 611.568 314.042C610.865 312.904 609.924 312.335 608.745 312.335C607.498 312.335 606.569 312.892 605.957 314.007C605.322 315.1 605.004 316.442 605.004 318.035V323.463H612.214Z" fill="black" fill-opacity="0.15"/>
<path d="M597.829 296.974C597.829 295.995 598.067 295.005 598.543 294.004C598.996 292.98 599.631 292.104 600.447 291.375H598.169V288.576H615.173V291.375H612.282C613.189 291.967 613.983 292.775 614.663 293.799C615.343 294.8 615.683 295.95 615.683 297.247C615.683 298.703 615.32 300.034 614.595 301.241C613.847 302.447 612.815 303.414 611.5 304.142C610.185 304.848 608.666 305.2 606.943 305.2C605.061 305.2 603.44 304.848 602.08 304.142C600.719 303.414 599.676 302.424 598.951 301.172C598.203 299.921 597.829 298.521 597.829 296.974ZM600.549 296.462C600.549 297.69 600.855 298.737 601.467 299.602C602.08 300.467 602.873 301.138 603.848 301.616C604.8 302.071 605.832 302.299 606.943 302.299C608.031 302.299 609.04 302.071 609.97 301.616C610.877 301.161 611.602 300.524 612.146 299.704C612.69 298.862 612.962 297.895 612.962 296.803C612.962 295.756 612.69 294.823 612.146 294.004C611.602 293.185 610.854 292.536 609.902 292.058C608.927 291.58 607.838 291.353 606.637 291.375L603.372 291.409C602.488 292.115 601.796 292.877 601.297 293.697C600.799 294.493 600.549 295.415 600.549 296.462Z" fill="black" fill-opacity="0.15"/>
<path d="M597.829 277.687C597.829 276.686 597.976 275.752 598.271 274.888C598.543 274.023 598.826 273.397 599.121 273.01H602.114C601.751 273.488 601.399 274.137 601.059 274.956C600.719 275.775 600.549 276.617 600.549 277.482C600.549 278.552 600.799 279.359 601.297 279.906C601.796 280.429 602.318 280.691 602.862 280.691C603.293 280.691 603.735 280.543 604.188 280.247C604.619 279.928 604.97 279.382 605.242 278.609L606.263 275.741C606.648 274.626 607.204 273.795 607.929 273.249C608.655 272.703 609.505 272.43 610.48 272.43C611.432 272.43 612.305 272.703 613.098 273.249C613.892 273.773 614.527 274.512 615.003 275.468C615.456 276.401 615.683 277.482 615.683 278.711C615.683 279.371 615.592 280.065 615.411 280.793C615.252 281.499 615.06 282.136 614.833 282.705C614.583 283.274 614.368 283.695 614.187 283.968H611.194C611.421 283.649 611.681 283.205 611.976 282.637C612.248 282.045 612.486 281.419 612.69 280.759C612.872 280.099 612.962 279.485 612.962 278.916C612.962 277.846 612.724 277.004 612.248 276.39C611.772 275.752 611.183 275.434 610.48 275.434C609.936 275.434 609.505 275.65 609.187 276.082C608.87 276.492 608.564 277.095 608.269 277.892L607.351 280.418C606.852 281.738 606.229 282.614 605.48 283.046C604.71 283.479 603.837 283.695 602.862 283.695C601.411 283.695 600.209 283.149 599.257 282.056C598.305 280.964 597.829 279.507 597.829 277.687Z" fill="black" fill-opacity="0.15"/>
<path d="M597.829 261.131C597.829 259.379 598.191 257.922 598.917 256.762C599.642 255.601 600.629 254.736 601.876 254.167C603.123 253.576 604.528 253.28 606.093 253.28H607.759V266.388C608.711 266.251 609.584 265.921 610.378 265.398C611.171 264.875 611.806 264.192 612.282 263.35C612.736 262.508 612.962 261.541 612.962 260.448C612.962 259.219 612.656 258.07 612.044 257C611.409 255.931 610.718 255.032 609.97 254.304L612.996 254.338C613.382 254.656 613.79 255.134 614.221 255.772C614.629 256.386 614.969 257.103 615.241 257.922C615.536 258.719 615.683 259.561 615.683 260.448C615.683 262.178 615.275 263.714 614.459 265.057C613.643 266.399 612.566 267.457 611.228 268.231C609.868 268.982 608.383 269.358 606.773 269.358C605.163 269.358 603.678 269.005 602.318 268.299C600.957 267.594 599.869 266.627 599.053 265.398C598.237 264.146 597.829 262.724 597.829 261.131ZM600.549 261.131C600.549 262.542 601.025 263.703 601.978 264.613C602.907 265.523 604.041 266.092 605.378 266.32V256.045C604.268 256.158 603.361 256.477 602.658 257C601.955 257.501 601.433 258.116 601.093 258.844C600.731 259.572 600.549 260.334 600.549 261.131Z" fill="black" fill-opacity="0.15"/>
<path d="M590.747 248V258.317H562.815V328.955H551.932V258.317H524V248H590.747Z" fill="black" fill-opacity="0.15"/>
</g>
<g filter="url(#filter1_d_75_17)">
<rect x="704" y="160" width="150" height="250" rx="10" fill="white"/>
<rect x="704.5" y="160.5" width="149" height="249" rx="9.5" stroke="black"/>
</g>
<path d="M321.578 22.1875L318.844 30H318.047L315.906 24.4844L313.766 30H312.969L310.234 22.1875H311.766L313.5 27.6719L315.547 22.1875H316.266L318.312 27.6719L320.047 22.1875H321.578ZM333.391 22.1875L330.656 30H329.859L327.719 24.4844L325.578 30H324.781L322.047 22.1875H323.578L325.312 27.6719L327.359 22.1875H328.078L330.125 27.6719L331.859 22.1875H333.391ZM345.203 22.1875L342.469 30H341.672L339.531 24.4844L337.391 30H336.594L333.859 22.1875H335.391L337.125 27.6719L339.172 22.1875H339.891L341.938 27.6719L343.672 22.1875H345.203ZM347.781 28.0938C348.083 28.0938 348.339 28.2031 348.547 28.4219C348.766 28.6302 348.875 28.8854 348.875 29.1875C348.875 29.4792 348.766 29.7344 348.547 29.9531C348.339 30.1719 348.083 30.2812 347.781 30.2812C347.479 30.2812 347.219 30.1719 347 29.9531C346.792 29.7344 346.688 29.4792 346.688 29.1875C346.688 28.8854 346.792 28.6302 347 28.4219C347.219 28.2031 347.479 28.0938 347.781 28.0938ZM356.578 22.1875L359.312 27.9375L361.969 22.1875H363.5L357.75 33.75H356.266L358.5 29.5312L355.047 22.1875H356.578ZM368.594 22.0312C369.385 22.0312 370.089 22.2188 370.703 22.5938C371.318 22.9688 371.797 23.4688 372.141 24.0938C372.495 24.7188 372.672 25.401 372.672 26.1406C372.672 26.8802 372.495 27.5625 372.141 28.1875C371.797 28.8021 371.318 29.2969 370.703 29.6719C370.089 30.0469 369.385 30.2344 368.594 30.2344C367.802 30.2344 367.099 30.0469 366.484 29.6719C365.87 29.2969 365.385 28.8021 365.031 28.1875C364.688 27.5625 364.516 26.8802 364.516 26.1406C364.516 25.401 364.688 24.7188 365.031 24.0938C365.385 23.4688 365.87 22.9688 366.484 22.5938C367.099 22.2188 367.802 22.0312 368.594 22.0312ZM368.594 23.2812C368.042 23.2812 367.557 23.4167 367.141 23.6875C366.724 23.9479 366.401 24.2969 366.172 24.7344C365.953 25.1615 365.844 25.6302 365.844 26.1406C365.844 26.6406 365.953 27.1094 366.172 27.5469C366.401 27.974 366.724 28.3229 367.141 28.5938C367.557 28.8542 368.042 28.9844 368.594 28.9844C369.156 28.9844 369.641 28.8542 370.047 28.5938C370.464 28.3229 370.781 27.974 371 27.5469C371.229 27.1094 371.344 26.6406 371.344 26.1406C371.344 25.6302 371.229 25.1615 371 24.7344C370.781 24.2969 370.464 23.9479 370.047 23.6875C369.641 23.4167 369.156 23.2812 368.594 23.2812ZM381.172 22.1875V26.8125C381.172 27.5 381.026 28.0938 380.734 28.5938C380.443 29.0938 380.047 29.4792 379.547 29.75C379.047 30.0208 378.484 30.1562 377.859 30.1562C377.234 30.1562 376.672 30.0208 376.172 29.75C375.672 29.4792 375.276 29.0938 374.984 28.5938C374.693 28.0938 374.547 27.5 374.547 26.8125V22.1875H375.875V26.8125C375.875 27.4896 376.073 28.0104 376.469 28.375C376.875 28.7292 377.339 28.9062 377.859 28.9062C378.38 28.9062 378.839 28.7292 379.234 28.375C379.641 28.0104 379.844 27.4896 379.844 26.8125V22.1875H381.172ZM384.875 22.1875V23.75C385.177 23.2292 385.542 22.8125 385.969 22.5C386.396 22.1875 386.833 22.0312 387.281 22.0312C387.583 22.0312 387.854 22.0833 388.094 22.1875V23.6719C387.76 23.474 387.427 23.375 387.094 23.375C386.562 23.375 386.13 23.5625 385.797 23.9375C385.474 24.3125 385.167 24.7604 384.875 25.2812V30H383.594V22.1875H384.875ZM394.703 19.2969C395.464 19.2969 396.083 19.401 396.562 19.6094C397.052 19.8177 397.479 20.0885 397.844 20.4219V21.9688C397.615 21.8021 397.354 21.6198 397.062 21.4219C396.781 21.224 396.448 21.0521 396.062 20.9062C395.688 20.75 395.234 20.6719 394.703 20.6719C393.922 20.6719 393.224 20.849 392.609 21.2031C391.995 21.5573 391.51 22.0469 391.156 22.6719C390.802 23.2865 390.625 23.9844 390.625 24.7656C390.625 25.5469 390.802 26.2448 391.156 26.8594C391.51 27.474 391.995 27.9635 392.609 28.3281C393.224 28.6823 393.922 28.8594 394.703 28.8594C395.505 28.8594 396.188 28.7292 396.75 28.4688C397.323 28.1979 397.792 27.9219 398.156 27.6406V29.0469C397.792 29.3698 397.312 29.651 396.719 29.8906C396.135 30.1198 395.464 30.2344 394.703 30.2344C393.911 30.2344 393.182 30.0938 392.516 29.8125C391.849 29.5208 391.266 29.125 390.766 28.625C390.266 28.125 389.875 27.5469 389.594 26.8906C389.323 26.224 389.188 25.5156 389.188 24.7656C389.188 24.0156 389.323 23.3125 389.594 22.6562C389.875 21.9896 390.266 21.4062 390.766 20.9062C391.266 20.4062 391.849 20.0156 392.516 19.7344C393.182 19.4427 393.911 19.2969 394.703 19.2969ZM403.797 22.0312C404.589 22.0312 405.292 22.2188 405.906 22.5938C406.521 22.9688 407 23.4688 407.344 24.0938C407.698 24.7188 407.875 25.401 407.875 26.1406C407.875 26.8802 407.698 27.5625 407.344 28.1875C407 28.8021 406.521 29.2969 405.906 29.6719C405.292 30.0469 404.589 30.2344 403.797 30.2344C403.005 30.2344 402.302 30.0469 401.688 29.6719C401.073 29.2969 400.589 28.8021 400.234 28.1875C399.891 27.5625 399.719 26.8802 399.719 26.1406C399.719 25.401 399.891 24.7188 400.234 24.0938C400.589 23.4688 401.073 22.9688 401.688 22.5938C402.302 22.2188 403.005 22.0312 403.797 22.0312ZM403.797 23.2812C403.245 23.2812 402.76 23.4167 402.344 23.6875C401.927 23.9479 401.604 24.2969 401.375 24.7344C401.156 25.1615 401.047 25.6302 401.047 26.1406C401.047 26.6406 401.156 27.1094 401.375 27.5469C401.604 27.974 401.927 28.3229 402.344 28.5938C402.76 28.8542 403.245 28.9844 403.797 28.9844C404.359 28.9844 404.844 28.8542 405.25 28.5938C405.667 28.3229 405.984 27.974 406.203 27.5469C406.432 27.1094 406.547 26.6406 406.547 26.1406C406.547 25.6302 406.432 25.1615 406.203 24.7344C405.984 24.2969 405.667 23.9479 405.25 23.6875C404.844 23.4167 404.359 23.2812 403.797 23.2812ZM411.266 22.1875V23.1875C411.516 22.9062 411.833 22.6458 412.219 22.4062C412.615 22.1562 413.078 22.0312 413.609 22.0312C414.172 22.0312 414.698 22.1667 415.188 22.4375C415.677 22.6979 416.052 23.0938 416.312 23.625C416.677 23.1875 417.073 22.8125 417.5 22.5C417.927 22.1875 418.427 22.0312 419 22.0312C419.531 22.0312 420.026 22.151 420.484 22.3906C420.953 22.6198 421.328 22.974 421.609 23.4531C421.901 23.9219 422.047 24.5156 422.047 25.2344V30H420.766L420.75 25.3594C420.75 24.6823 420.573 24.1667 420.219 23.8125C419.875 23.4583 419.396 23.2812 418.781 23.2812C418.333 23.2812 417.943 23.4219 417.609 23.7031C417.276 23.9844 416.958 24.3125 416.656 24.6875V30H415.375L415.359 25.3594C415.359 24.6823 415.182 24.1667 414.828 23.8125C414.484 23.4583 414.005 23.2812 413.391 23.2812C412.964 23.2812 412.573 23.4062 412.219 23.6562C411.875 23.9062 411.557 24.2083 411.266 24.5625V30H409.984V22.1875H411.266ZM428.438 22.0312C429.115 22.0312 429.724 22.1979 430.266 22.5312C430.818 22.8542 431.255 23.3125 431.578 23.9062C431.911 24.4896 432.078 25.1771 432.078 25.9688C432.078 26.8229 431.911 27.5729 431.578 28.2188C431.255 28.8542 430.807 29.349 430.234 29.7031C429.672 30.0573 429.031 30.2344 428.312 30.2344C427.865 30.2344 427.406 30.1146 426.938 29.875C426.479 29.6354 426.083 29.3281 425.75 28.9531V33.75H424.469V22.1875H425.75V23.5156C426.021 23.099 426.385 22.75 426.844 22.4688C427.312 22.1771 427.844 22.0312 428.438 22.0312ZM428.234 23.2812C427.766 23.2812 427.339 23.401 426.953 23.6406C426.578 23.8802 426.281 24.2135 426.062 24.6406C425.854 25.0573 425.75 25.5469 425.75 26.1094L425.766 27.6094C426.099 28.0156 426.448 28.349 426.812 28.6094C427.177 28.8594 427.599 28.9844 428.078 28.9844C428.641 28.9844 429.12 28.8385 429.516 28.5469C429.911 28.2552 430.214 27.8802 430.422 27.4219C430.641 26.9531 430.75 26.4688 430.75 25.9688C430.75 25.4583 430.646 25.0052 430.438 24.6094C430.229 24.2031 429.938 23.8802 429.562 23.6406C429.188 23.401 428.745 23.2812 428.234 23.2812ZM437.406 22.0312C437.854 22.0312 438.307 22.1406 438.766 22.3594C439.234 22.5677 439.635 22.8594 439.969 23.2344V22.1875H441.25V30H439.969V28.6719C439.698 29.0885 439.328 29.4531 438.859 29.7656C438.401 30.0781 437.875 30.2344 437.281 30.2344C436.615 30.2344 436.005 30.0677 435.453 29.7344C434.901 29.3906 434.458 28.9167 434.125 28.3125C433.802 27.7083 433.641 27.0104 433.641 26.2188C433.641 25.3542 433.802 24.6094 434.125 23.9844C434.458 23.3594 434.911 22.8802 435.484 22.5469C436.057 22.2031 436.698 22.0312 437.406 22.0312ZM437.641 23.2812C437.078 23.2812 436.599 23.4219 436.203 23.7031C435.807 23.9844 435.5 24.349 435.281 24.7969C435.073 25.2344 434.969 25.7083 434.969 26.2188C434.969 26.7188 435.073 27.1823 435.281 27.6094C435.49 28.026 435.781 28.3594 436.156 28.6094C436.542 28.8594 436.984 28.9844 437.484 28.9844C437.964 28.9844 438.391 28.8594 438.766 28.6094C439.141 28.3594 439.438 28.0156 439.656 27.5781C439.875 27.1302 439.979 26.6302 439.969 26.0781L439.953 24.5781C439.63 24.1719 439.281 23.8542 438.906 23.625C438.542 23.3958 438.12 23.2812 437.641 23.2812ZM445.188 22.1875V23.4219C445.354 23.2135 445.568 23.0052 445.828 22.7969C446.089 22.5781 446.38 22.3958 446.703 22.25C447.036 22.1042 447.38 22.0312 447.734 22.0312C448.266 22.0312 448.75 22.151 449.188 22.3906C449.625 22.6198 449.974 22.974 450.234 23.4531C450.495 23.9219 450.625 24.5156 450.625 25.2344V30H449.344L449.328 25.3594C449.328 24.6823 449.177 24.1667 448.875 23.8125C448.583 23.4583 448.13 23.2812 447.516 23.2812C447.099 23.2812 446.682 23.4375 446.266 23.75C445.859 24.0521 445.5 24.4062 445.188 24.8125V30H443.906V22.1875H445.188ZM453.484 22.1875L456.219 27.9375L458.875 22.1875H460.406L454.656 33.75H453.172L455.406 29.5312L451.953 22.1875H453.484ZM467.672 28.0938C467.974 28.0938 468.229 28.2031 468.438 28.4219C468.656 28.6302 468.766 28.8854 468.766 29.1875C468.766 29.4792 468.656 29.7344 468.438 29.9531C468.229 30.1719 467.974 30.2812 467.672 30.2812C467.37 30.2812 467.109 30.1719 466.891 29.9531C466.682 29.7344 466.578 29.4792 466.578 29.1875C466.578 28.8854 466.682 28.6302 466.891 28.4219C467.109 28.2031 467.37 28.0938 467.672 28.0938ZM474.875 22.0312C475.448 22.0312 475.943 22.125 476.359 22.3125C476.776 22.4896 477.062 22.651 477.219 22.7969V24.0938C476.927 23.875 476.594 23.6875 476.219 23.5312C475.844 23.3646 475.396 23.2812 474.875 23.2812C474.323 23.2812 473.839 23.4167 473.422 23.6875C473.005 23.9479 472.682 24.2969 472.453 24.7344C472.234 25.1615 472.125 25.6302 472.125 26.1406C472.125 26.6406 472.234 27.1094 472.453 27.5469C472.682 27.974 473.005 28.3229 473.422 28.5938C473.839 28.8542 474.323 28.9844 474.875 28.9844C475.396 28.9844 475.844 28.9062 476.219 28.75C476.594 28.5833 476.927 28.3906 477.219 28.1719V29.4688C477.062 29.625 476.776 29.7917 476.359 29.9688C475.943 30.1458 475.448 30.2344 474.875 30.2344C474.083 30.2344 473.38 30.0469 472.766 29.6719C472.151 29.2969 471.667 28.8021 471.312 28.1875C470.969 27.5625 470.797 26.8802 470.797 26.1406C470.797 25.401 470.969 24.7188 471.312 24.0938C471.667 23.4688 472.151 22.9688 472.766 22.5938C473.38 22.2188 474.083 22.0312 474.875 22.0312ZM482.859 22.0312C483.651 22.0312 484.354 22.2188 484.969 22.5938C485.583 22.9688 486.062 23.4688 486.406 24.0938C486.76 24.7188 486.938 25.401 486.938 26.1406C486.938 26.8802 486.76 27.5625 486.406 28.1875C486.062 28.8021 485.583 29.2969 484.969 29.6719C484.354 30.0469 483.651 30.2344 482.859 30.2344C482.068 30.2344 481.365 30.0469 480.75 29.6719C480.135 29.2969 479.651 28.8021 479.297 28.1875C478.953 27.5625 478.781 26.8802 478.781 26.1406C478.781 25.401 478.953 24.7188 479.297 24.0938C479.651 23.4688 480.135 22.9688 480.75 22.5938C481.365 22.2188 482.068 22.0312 482.859 22.0312ZM482.859 23.2812C482.307 23.2812 481.823 23.4167 481.406 23.6875C480.99 23.9479 480.667 24.2969 480.438 24.7344C480.219 25.1615 480.109 25.6302 480.109 26.1406C480.109 26.6406 480.219 27.1094 480.438 27.5469C480.667 27.974 480.99 28.3229 481.406 28.5938C481.823 28.8542 482.307 28.9844 482.859 28.9844C483.422 28.9844 483.906 28.8542 484.312 28.5938C484.729 28.3229 485.047 27.974 485.266 27.5469C485.495 27.1094 485.609 26.6406 485.609 26.1406C485.609 25.6302 485.495 25.1615 485.266 24.7344C485.047 24.2969 484.729 23.9479 484.312 23.6875C483.906 23.4167 483.422 23.2812 482.859 23.2812ZM490.328 22.1875V23.1875C490.578 22.9062 490.896 22.6458 491.281 22.4062C491.677 22.1562 492.141 22.0312 492.672 22.0312C493.234 22.0312 493.76 22.1667 494.25 22.4375C494.74 22.6979 495.115 23.0938 495.375 23.625C495.74 23.1875 496.135 22.8125 496.562 22.5C496.99 22.1875 497.49 22.0312 498.062 22.0312C498.594 22.0312 499.089 22.151 499.547 22.3906C500.016 22.6198 500.391 22.974 500.672 23.4531C500.964 23.9219 501.109 24.5156 501.109 25.2344V30H499.828L499.812 25.3594C499.812 24.6823 499.635 24.1667 499.281 23.8125C498.938 23.4583 498.458 23.2812 497.844 23.2812C497.396 23.2812 497.005 23.4219 496.672 23.7031C496.339 23.9844 496.021 24.3125 495.719 24.6875V30H494.438L494.422 25.3594C494.422 24.6823 494.245 24.1667 493.891 23.8125C493.547 23.4583 493.068 23.2812 492.453 23.2812C492.026 23.2812 491.635 23.4062 491.281 23.6562C490.938 23.9062 490.62 24.2083 490.328 24.5625V30H489.047V22.1875H490.328Z" fill="black"/>
<g filter="url(#filter2_d_75_17)">
<rect x="4" y="210" width="300" height="200" rx="10" fill="white"/>
<rect x="4.5" y="210.5" width="299" height="199" rx="9.5" stroke="black"/>
</g>
<defs>
<filter id="filter0_d_75_17" x="248" y="54" width="520" height="320" filterUnits="userSpaceOnUse" color-interpolation-filters="sRGB">
<feFlood flood-opacity="0" result="BackgroundImageFix"/>
<feColorMatrix in="SourceAlpha" type="matrix" values="0 0 0 0 0 0 0 0 0 0 0 0 0 0 0 0 0 0 127 0" result="hardAlpha"/>
<feOffset dx="4" dy="4"/>
<feGaussianBlur stdDeviation="5"/>
<feComposite in2="hardAlpha" operator="out"/>
<feColorMatrix type="matrix" values="0 0 0 0 0 0 0 0 0 0 0 0 0 0 0 0 0 0 0.5 0"/>
<feBlend mode="normal" in2="BackgroundImageFix" result="effect1_dropShadow_75_17"/>
<feBlend mode="normal" in="SourceGraphic" in2="effect1_dropShadow_75_17" result="shape"/>
</filter>
<filter id="filter1_d_75_17" x="700" y="160" width="158" height="258" filterUnits="userSpaceOnUse" color-interpolation-filters="sRGB">
<feFlood flood-opacity="0" result="BackgroundImageFix"/>
<feColorMatrix in="SourceAlpha" type="matrix" values="0 0 0 0 0 0 0 0 0 0 0 0 0 0 0 0 0 0 127 0" result="hardAlpha"/>
<feOffset dy="4"/>
<feGaussianBlur stdDeviation="2"/>
<feComposite in2="hardAlpha" operator="out"/>
<feColorMatrix type="matrix" values="0 0 0 0 0 0 0 0 0 0 0 0 0 0 0 0 0 0 0.25 0"/>
<feBlend mode="normal" in2="BackgroundImageFix" result="effect1_dropShadow_75_17"/>
<feBlend mode="normal" in="SourceGraphic" in2="effect1_dropShadow_75_17" result="shape"/>
</filter>
<filter id="filter2_d_75_17" x="0" y="210" width="308" height="208" filterUnits="userSpaceOnUse" color-interpolation-filters="sRGB">
<feFlood flood-opacity="0" result="BackgroundImageFix"/>
<feColorMatrix in="SourceAlpha" type="matrix" values="0 0 0 0 0 0 0 0 0 0 0 0 0 0 0 0 0 0 127 0" result="hardAlpha"/>
<feOffset dy="4"/>
<feGaussianBlur stdDeviation="2"/>
<feComposite in2="hardAlpha" operator="out"/>
<feColorMatrix type="matrix" values="0 0 0 0 0 0 0 0 0 0 0 0 0 0 0 0 0 0 0.25 0"/>
<feBlend mode="normal" in2="BackgroundImageFix" result="effect1_dropShadow_75_17"/>
<feBlend mode="normal" in="SourceGraphic" in2="effect1_dropShadow_75_17" result="shape"/>
</filter>
</defs>
</svg>
