<svg width="100" height="100" viewBox="0 0 100 100" fill="none" xmlns="http://www.w3.org/2000/svg">
<path d="M23.2292 8.6417C23.7596 8.89677 24.2073 9.29647 24.5206 9.79478C24.8339 10.2931 25.0001 10.8698 25 11.4584C25 14.9167 26.3 16.9084 27.9292 19.3334L28.05 19.5084C29.4333 21.5667 31.25 24.2625 31.25 28.125C31.25 32.0667 29.2625 35.5417 26.2333 37.6042C27.0292 38.2709 27.7333 39.0917 28.3417 40.075C30.325 43.2834 31.25 48.1875 31.25 55.2292C31.25 62.3625 30.2917 70.9292 28.7292 77.7709C27.9542 81.1709 26.9917 84.3084 25.8458 86.6625C25.3049 87.8339 24.5883 88.9158 23.7208 89.8709C22.8625 90.75 21.5417 91.6875 19.7917 91.6875C18.0417 91.6875 16.7208 90.75 15.8667 89.8709C14.9967 88.9177 14.2799 87.8354 13.7417 86.6625C12.5917 84.3042 11.6292 81.1709 10.8542 77.7667C9.22895 70.3615 8.38406 62.8063 8.33334 55.225C8.33334 48.1834 9.25834 43.2834 11.2417 40.075C11.8075 39.1438 12.5194 38.3095 13.35 37.6042C11.8032 36.5541 10.5372 35.141 9.66272 33.4886C8.7882 31.8361 8.33177 29.9946 8.33334 28.125C8.33334 26.5917 8.33334 23.9542 9.92917 20.55C11.4917 17.2167 14.4625 13.3875 19.9208 9.01671C20.3809 8.64872 20.9355 8.41827 21.5209 8.35192C22.1063 8.28557 22.6984 8.38602 23.2292 8.6417ZM41.6667 62.1542C39.4592 61.7839 37.312 61.1168 35.2833 60.1709C35.3708 58.4792 35.4167 56.8209 35.4167 55.2292C35.4167 53.5375 35.3667 51.9209 35.2583 50.3792C37.1042 51.9 39.2833 53.0292 41.6667 53.6417V43.75C41.6667 42.0924 42.3251 40.5027 43.4972 39.3306C44.6694 38.1585 46.2591 37.5 47.9167 37.5H62.5C62.5004 34.3209 61.5915 31.2079 59.8805 28.5284C58.1696 25.8489 55.728 23.7146 52.8437 22.3774C49.9594 21.0401 46.7529 20.5557 43.6023 20.9813C40.4517 21.4069 37.4886 22.7247 35.0625 24.7792C34.3417 21.3875 32.6667 18.9042 31.5958 17.3167L31.4292 17.0667C35.1727 14.4277 39.5693 12.8679 44.139 12.5575C48.7087 12.2471 53.2759 13.198 57.3419 15.3065C61.408 17.415 64.8167 20.6 67.1959 24.5138C69.5751 28.4276 70.8333 32.9198 70.8333 37.5H85.4167C87.0743 37.5 88.664 38.1585 89.8361 39.3306C91.0082 40.5027 91.6667 42.0924 91.6667 43.75V81.25C91.6667 82.9076 91.0082 84.4973 89.8361 85.6694C88.664 86.8416 87.0743 87.5 85.4167 87.5H47.9167C46.2591 87.5 44.6694 86.8416 43.4972 85.6694C42.3251 84.4973 41.6667 82.9076 41.6667 81.25V62.1542ZM50 62.1542V79.1667H83.3333V45.8334H69.4125C67.9231 50.0366 65.3379 53.7657 61.9243 56.635C58.5107 59.5044 54.3926 61.4098 49.9958 62.1542H50ZM60.2708 45.8334H50V53.6417C52.1443 53.0864 54.1566 52.11 55.9199 50.7695C57.6832 49.4289 59.1622 47.751 60.2708 45.8334Z" fill="#2C567E"/>
</svg>
