<svg width="300" height="100" viewBox="0 0 300 100" fill="none" xmlns="http://www.w3.org/2000/svg">
<rect width="300" height="100" fill="white"/>
<path d="M51.5625 39.0625V42.9688H44.875V59.9062H40.5625V42.9688H33.875V39.0625H51.5625ZM63.5938 43.8125C65.1979 43.8125 66.5417 44.3542 67.625 45.4375C68.7083 46.5208 69.25 48.1458 69.25 50.3125V60H65.2812L65.25 50.8438C65.25 49.7812 64.9896 48.9896 64.4688 48.4688C63.9688 47.9479 63.2708 47.6875 62.375 47.6875C61.6667 47.6875 61 47.9167 60.375 48.375C59.7708 48.8333 59.25 49.375 58.8125 50V60H54.8438V37.5H58.8125V46.4688C59.2917 45.8229 59.9375 45.2188 60.75 44.6562C61.5833 44.0938 62.5312 43.8125 63.5938 43.8125ZM80.7188 43.8125C82.2604 43.8125 83.5833 44.1458 84.6875 44.8125C85.8125 45.4792 86.6667 46.4062 87.25 47.5938C87.8542 48.7604 88.1562 50.1146 88.1562 51.6562V53.3438H76.7188C76.9271 54.4062 77.4479 55.2604 78.2812 55.9062C79.1146 56.5521 80.1354 56.875 81.3438 56.875C82.4896 56.875 83.5312 56.6458 84.4688 56.1875C85.4062 55.7292 86.1562 55.2604 86.7188 54.7812L86.6875 58.4688C86.1875 58.9062 85.4375 59.3542 84.4375 59.8125C83.4583 60.25 82.375 60.4688 81.1875 60.4688C79.625 60.4688 78.1979 60.1146 76.9062 59.4062C75.6354 58.6979 74.6146 57.7292 73.8438 56.5C73.0938 55.2708 72.7188 53.8646 72.7188 52.2812C72.7188 50.7396 73.0625 49.3333 73.75 48.0625C74.4375 46.7917 75.3854 45.7708 76.5938 45C77.8021 44.2083 79.1771 43.8125 80.7188 43.8125ZM80.625 47.2812C79.6458 47.2812 78.8229 47.5833 78.1562 48.1875C77.4896 48.7917 77.0312 49.6042 76.7812 50.625H84.3438C84.2604 49.5 83.8438 48.6667 83.0938 48.125C82.3438 47.5625 81.5208 47.2812 80.625 47.2812ZM106.188 39.0625V56.0938H116.656V60H101.844V39.0625H106.188ZM128.406 43.8125C129.948 43.8125 131.354 44.1875 132.625 44.9375C133.896 45.6667 134.917 46.6667 135.688 47.9375C136.479 49.1875 136.875 50.5938 136.875 52.1562C136.875 53.7188 136.479 55.125 135.688 56.375C134.917 57.625 133.896 58.625 132.625 59.375C131.354 60.1042 129.948 60.4688 128.406 60.4688C126.885 60.4688 125.479 60.1042 124.188 59.375C122.917 58.625 121.896 57.625 121.125 56.375C120.354 55.125 119.969 53.7188 119.969 52.1562C119.969 50.5938 120.354 49.1875 121.125 47.9375C121.896 46.6667 122.917 45.6667 124.188 44.9375C125.479 44.1875 126.885 43.8125 128.406 43.8125ZM128.406 47.6562C127.656 47.6562 126.958 47.8333 126.312 48.1875C125.667 48.5417 125.146 49.0521 124.75 49.7188C124.375 50.3854 124.188 51.1979 124.188 52.1562C124.188 53.1146 124.375 53.9271 124.75 54.5938C125.146 55.2604 125.667 55.7708 126.312 56.125C126.958 56.4583 127.656 56.625 128.406 56.625C129.156 56.625 129.854 56.4583 130.5 56.125C131.146 55.7708 131.667 55.2604 132.062 54.5938C132.458 53.9271 132.656 53.1146 132.656 52.1562C132.656 51.1979 132.458 50.3854 132.062 49.7188C131.667 49.0521 131.146 48.5417 130.5 48.1875C129.854 47.8333 129.156 47.6562 128.406 47.6562ZM146.875 43.8125C147.729 43.8125 148.594 44.0104 149.469 44.4062C150.344 44.8021 151.073 45.3333 151.656 46V44.2188H155.625V59.5938C155.625 61.3854 155.229 62.8958 154.438 64.125C153.646 65.375 152.594 66.3229 151.281 66.9688C149.969 67.6354 148.531 67.9688 146.969 67.9688C145.573 67.9688 144.427 67.7604 143.531 67.3438C142.635 66.9271 141.802 66.4479 141.031 65.9062V62.1562C141.51 62.4479 142.01 62.7604 142.531 63.0938C143.073 63.4271 143.677 63.7083 144.344 63.9375C145.031 64.1667 145.823 64.2812 146.719 64.2812C147.656 64.2812 148.5 64.1042 149.25 63.75C150 63.3958 150.583 62.8958 151 62.25C151.438 61.625 151.656 60.9062 151.656 60.0938V57.3438C151.198 58.1979 150.531 58.9375 149.656 59.5625C148.781 60.1667 147.76 60.4688 146.594 60.4688C145.323 60.4688 144.146 60.1458 143.062 59.5C142 58.8542 141.146 57.9167 140.5 56.6875C139.854 55.4583 139.531 53.9688 139.531 52.2188C139.531 50.4688 139.854 48.9688 140.5 47.7188C141.167 46.4688 142.052 45.5104 143.156 44.8438C144.281 44.1562 145.521 43.8125 146.875 43.8125ZM147.688 47.7188C146.854 47.7188 146.135 47.9375 145.531 48.375C144.948 48.7917 144.49 49.3438 144.156 50.0312C143.823 50.6979 143.656 51.4271 143.656 52.2188C143.656 53.4062 144.01 54.4167 144.719 55.25C145.448 56.0625 146.406 56.4688 147.594 56.4688C148.302 56.4688 148.958 56.2917 149.562 55.9375C150.188 55.5625 150.688 55.0417 151.062 54.375C151.458 53.6875 151.656 52.8646 151.656 51.9062V49.6562C151.094 49.0521 150.479 48.5833 149.812 48.25C149.167 47.8958 148.458 47.7188 147.688 47.7188ZM163.812 36C164.562 36 165.208 36.2708 165.75 36.8125C166.292 37.3333 166.562 37.9583 166.562 38.6875C166.562 39.3958 166.292 40.0208 165.75 40.5625C165.208 41.1042 164.562 41.375 163.812 41.375C163.062 41.375 162.417 41.1042 161.875 40.5625C161.354 40.0208 161.094 39.3958 161.094 38.6875C161.094 37.9583 161.354 37.3333 161.875 36.8125C162.417 36.2708 163.062 36 163.812 36ZM166.125 44.2188V60H162.156V47.5938H159.625V44.2188H166.125ZM178.312 43.8125C179.479 43.8125 180.438 44 181.188 44.375C181.938 44.75 182.531 45.1146 182.969 45.4688V49.125C182.427 48.7292 181.812 48.3958 181.125 48.125C180.458 47.8542 179.635 47.7188 178.656 47.7188C177.865 47.7188 177.125 47.9167 176.438 48.3125C175.771 48.7083 175.24 49.2396 174.844 49.9062C174.448 50.5729 174.25 51.3333 174.25 52.1875C174.25 53.4792 174.667 54.5417 175.5 55.375C176.333 56.2083 177.385 56.625 178.656 56.625C179.635 56.625 180.458 56.5 181.125 56.25C181.812 55.9792 182.427 55.6458 182.969 55.25V58.875C182.531 59.25 181.938 59.6146 181.188 59.9688C180.438 60.3021 179.479 60.4688 178.312 60.4688C176.708 60.4688 175.281 60.0938 174.031 59.3438C172.802 58.5729 171.823 57.5625 171.094 56.3125C170.385 55.0417 170.031 53.6667 170.031 52.1875C170.031 51.0833 170.229 50.0312 170.625 49.0312C171.042 48.0312 171.625 47.1458 172.375 46.375C173.125 45.5833 174 44.9583 175 44.5C176.021 44.0417 177.125 43.8125 178.312 43.8125ZM204.469 38.5625C206.094 38.5625 207.51 38.8229 208.719 39.3438C209.927 39.8438 210.865 40.5417 211.531 41.4375C212.219 42.3333 212.562 43.3646 212.562 44.5312C212.562 45.5729 212.281 46.5 211.719 47.3125C211.177 48.125 210.49 48.75 209.656 49.1875C210.281 49.3542 210.885 49.6354 211.469 50.0312C212.052 50.4062 212.531 50.9167 212.906 51.5625C213.281 52.1875 213.469 52.9896 213.469 53.9688C213.469 55.1354 213.115 56.2083 212.406 57.1875C211.698 58.1458 210.708 58.9167 209.438 59.5C208.167 60.0833 206.688 60.375 205 60.375C204.083 60.375 203.094 60.3333 202.031 60.25C200.969 60.1875 199.958 60.0938 199 59.9688C198.042 59.8229 197.229 59.6771 196.562 59.5312V39.3438C197.729 39.0938 198.99 38.9062 200.344 38.7812C201.698 38.6354 203.073 38.5625 204.469 38.5625ZM204.469 42.5312C203.135 42.5312 201.948 42.6354 200.906 42.8438V47.9062H204.812C205.875 47.9062 206.708 47.6458 207.312 47.125C207.938 46.6042 208.25 45.9375 208.25 45.125C208.25 44.2917 207.875 43.6562 207.125 43.2188C206.396 42.7604 205.51 42.5312 204.469 42.5312ZM200.906 56.0938C201.49 56.2396 202.156 56.3438 202.906 56.4062C203.677 56.4479 204.292 56.4688 204.75 56.4688C205.958 56.4688 206.948 56.2292 207.719 55.75C208.51 55.2708 208.906 54.5938 208.906 53.7188C208.906 52.8438 208.5 52.1979 207.688 51.7812C206.875 51.3438 205.896 51.125 204.75 51.125H200.906V56.0938ZM223.844 43.8125C224.698 43.8125 225.562 44.0104 226.438 44.4062C227.312 44.8021 228.042 45.3333 228.625 46V44.2188H232.594V60H228.625V57.3438C228.167 58.1979 227.5 58.9375 226.625 59.5625C225.75 60.1667 224.729 60.4688 223.562 60.4688C222.292 60.4688 221.115 60.1458 220.031 59.5C218.969 58.8542 218.115 57.9167 217.469 56.6875C216.823 55.4583 216.5 53.9688 216.5 52.2188C216.5 50.4688 216.823 48.9688 217.469 47.7188C218.135 46.4688 219.021 45.5104 220.125 44.8438C221.25 44.1562 222.49 43.8125 223.844 43.8125ZM224.656 47.6875C223.823 47.6875 223.104 47.9062 222.5 48.3438C221.917 48.7604 221.458 49.3125 221.125 50C220.792 50.6875 220.625 51.4271 220.625 52.2188C220.625 53.4062 220.979 54.4167 221.688 55.25C222.417 56.0833 223.375 56.5 224.562 56.5C225.271 56.5 225.927 56.3125 226.531 55.9375C227.156 55.5625 227.656 55.0417 228.031 54.375C228.427 53.6875 228.625 52.8646 228.625 51.9062V49.6562C228.062 49.0521 227.448 48.5729 226.781 48.2188C226.135 47.8646 225.427 47.6875 224.656 47.6875ZM242.562 43.8125C243.542 43.8125 244.448 43.9583 245.281 44.25C246.115 44.5417 246.76 44.875 247.219 45.25V48.75C246.719 48.4167 246.104 48.0938 245.375 47.7812C244.667 47.4688 243.927 47.3125 243.156 47.3125C242.406 47.3125 241.812 47.4792 241.375 47.8125C240.938 48.1458 240.719 48.5417 240.719 49C240.719 49.3333 240.844 49.6458 241.094 49.9375C241.344 50.2083 241.823 50.4479 242.531 50.6562L244.312 51.25C246.708 51.9583 247.906 53.3438 247.906 55.4062C247.906 56.3854 247.625 57.2604 247.062 58.0312C246.521 58.7812 245.781 59.375 244.844 59.8125C243.927 60.25 242.906 60.4688 241.781 60.4688C240.719 60.4688 239.688 60.3021 238.688 59.9688C237.688 59.6354 236.927 59.2708 236.406 58.875V55.4062C236.802 55.6771 237.281 55.9375 237.844 56.1875C238.406 56.4375 238.99 56.6458 239.594 56.8125C240.198 56.9583 240.75 57.0312 241.25 57.0312C242.042 57.0312 242.646 56.8958 243.062 56.625C243.5 56.3333 243.719 55.9271 243.719 55.4062C243.719 55.0104 243.542 54.6979 243.188 54.4688C242.833 54.2396 242.312 54.0104 241.625 53.7812L239.688 53.0938C238.479 52.6979 237.646 52.1354 237.188 51.4062C236.729 50.6771 236.5 49.8125 236.5 48.8125C236.5 47.8125 236.75 46.9479 237.25 46.2188C237.771 45.4688 238.49 44.8854 239.406 44.4688C240.323 44.0312 241.375 43.8125 242.562 43.8125ZM258.188 43.8125C259.729 43.8125 261.052 44.1458 262.156 44.8125C263.281 45.4792 264.135 46.4062 264.719 47.5938C265.323 48.7604 265.625 50.1146 265.625 51.6562V53.3438H254.188C254.396 54.4062 254.917 55.2604 255.75 55.9062C256.583 56.5521 257.604 56.875 258.812 56.875C259.958 56.875 261 56.6458 261.938 56.1875C262.875 55.7292 263.625 55.2604 264.188 54.7812L264.156 58.4688C263.656 58.9062 262.906 59.3542 261.906 59.8125C260.927 60.25 259.844 60.4688 258.656 60.4688C257.094 60.4688 255.667 60.1146 254.375 59.4062C253.104 58.6979 252.083 57.7292 251.312 56.5C250.562 55.2708 250.188 53.8646 250.188 52.2812C250.188 50.7396 250.531 49.3333 251.219 48.0625C251.906 46.7917 252.854 45.7708 254.062 45C255.271 44.2083 256.646 43.8125 258.188 43.8125ZM258.094 47.2812C257.115 47.2812 256.292 47.5833 255.625 48.1875C254.958 48.7917 254.5 49.6042 254.25 50.625H261.812C261.729 49.5 261.312 48.6667 260.562 48.125C259.812 47.5625 258.99 47.2812 258.094 47.2812Z" fill="black"/>
</svg>
