<svg width="100" height="100" viewBox="0 0 100 100" fill="none" xmlns="http://www.w3.org/2000/svg">
<path d="M50 22.6672C34.9047 22.6672 22.6672 34.9047 22.6672 50C22.6672 65.0954 34.9047 77.3329 50 77.3329C65.0953 77.3329 77.3328 65.0958 77.3328 50C77.3328 34.9043 65.0953 22.6672 50 22.6672ZM50 73.0469C37.2715 73.0469 26.9531 62.7286 26.9531 50C26.9531 37.2715 37.2715 26.9532 50 26.9532C62.7285 26.9532 73.0469 37.2715 73.0469 50C73.0469 62.7286 62.7285 73.0469 50 73.0469Z" fill="#EBE7F2"/>
<path d="M60.3496 56.9056L55.234 51.79C54.9582 51.5142 54.5113 51.5142 54.2355 51.79L54.0441 51.9814L53.3918 51.329C53.3 51.2372 53.1508 51.2372 53.059 51.329L52.6484 51.7396L51.4937 50.5849L55.825 46.2536C56.9644 46.5841 58.2457 46.3294 59.1679 45.4736C59.9668 44.7318 60.3355 43.7111 60.2754 42.7115C60.2586 42.4341 59.9222 42.306 59.7258 42.5025L58.0164 44.2118C57.9347 44.2935 57.8152 44.3251 57.7035 44.2947L56.0969 43.8544C55.9871 43.8243 55.9015 43.7388 55.8715 43.629L55.4312 42.0224C55.4008 41.9107 55.4324 41.7915 55.514 41.7095L57.2234 40.0001C57.4187 39.8048 57.2941 39.4677 57.0187 39.4505C56.0332 39.3896 55.0265 39.7462 54.2871 40.5208C53.391 41.4591 53.1195 42.754 53.4636 43.9091L49.141 48.2318L43.7285 42.8193L43.5898 42.2189C43.5504 42.0482 43.4492 41.8986 43.3054 41.7986L41.4937 40.5357C41.4004 40.4704 41.2734 40.4818 41.1929 40.5622L40.5621 41.1931C40.4816 41.2736 40.4703 41.4005 40.5355 41.4939L41.7984 43.3056C41.8984 43.449 42.0484 43.5505 42.2187 43.59L42.8191 43.7286L48.2316 49.1411L43.909 53.4638C42.7539 53.1193 41.4594 53.3908 40.5207 54.2872C39.7461 55.0271 39.3894 56.0333 39.4504 57.0189C39.4672 57.2943 39.8047 57.4189 40 57.2236L41.7094 55.5142C41.791 55.4322 41.9105 55.4005 42.0222 55.4314L43.6289 55.8716C43.7386 55.9017 43.8242 55.9872 43.8543 56.097L44.2945 57.7036C44.325 57.8154 44.2933 57.9349 44.2117 58.0165L42.5023 59.7259C42.3058 59.9224 42.434 60.2587 42.7113 60.2755C43.7109 60.3361 44.7316 59.9669 45.4734 59.1681C46.3293 58.2462 46.584 56.965 46.2535 55.8251L50.5847 51.4939L51.7394 52.6486L51.3289 53.0591C51.2371 53.1509 51.2371 53.3001 51.3289 53.3919L51.9812 54.0443L51.7898 54.2357C51.514 54.5115 51.514 54.9583 51.7898 55.2341L56.9054 60.3497C57.1812 60.6255 57.6281 60.6255 57.9039 60.3497L60.3496 57.904C60.6254 57.6283 60.6254 57.1814 60.3496 56.9056Z" fill="#F9B087"/>
<path d="M50 18.8079C32.8008 18.8079 18.8078 32.8004 18.8078 50.0001C18.8078 67.1997 32.8008 81.1922 50 81.1922C67.1992 81.1922 81.1922 67.1993 81.1922 50.0001C81.1922 32.8008 67.1992 18.8079 50 18.8079ZM50 79.2391C33.8777 79.2391 20.7609 66.1227 20.7609 50.0001C20.7609 33.8774 33.8777 20.761 50 20.761C66.1223 20.761 79.2391 33.8778 79.2391 50.0001C79.2391 66.1223 66.1223 79.2391 50 79.2391Z" fill="#846F75"/>
<path d="M50 32.6824C40.4512 32.6824 32.6824 40.4511 32.6824 50C32.6824 59.5488 40.4512 67.3175 50 67.3175C59.5488 67.3175 67.3176 59.5488 67.3176 50C67.3176 40.4511 59.5488 32.6824 50 32.6824ZM50 65.3644C41.5281 65.3644 34.6355 58.4718 34.6355 50C34.6355 41.5281 41.5281 34.6355 50 34.6355C58.4719 34.6355 65.3644 41.5281 65.3644 50C65.3644 58.4718 58.4719 65.3644 50 65.3644Z" fill="#846F75"/>
<path d="M50 25.9766C36.7535 25.9766 25.9766 36.7535 25.9766 50C25.9766 63.2465 36.7535 74.0234 50 74.0234C63.2465 74.0234 74.0234 63.2465 74.0234 50C74.0234 36.7535 63.2465 25.9766 50 25.9766ZM50 72.0703C37.8305 72.0703 27.9297 62.1695 27.9297 50C27.9297 37.8305 37.8305 27.9297 50 27.9297C62.1695 27.9297 72.0703 37.8305 72.0703 50C72.0703 62.1695 62.1695 72.0703 50 72.0703Z" fill="#846F75"/>
<path d="M53.2203 81.7195C52.6808 81.7195 52.2437 82.1566 52.2437 82.696V85.3152H47.7562V82.696C47.7562 82.1566 47.3191 81.7195 46.7797 81.7195C46.2402 81.7195 45.8031 82.1566 45.8031 82.696V86.2917C45.8031 86.8312 46.2402 87.2683 46.7797 87.2683H53.2203C53.7597 87.2683 54.1969 86.8312 54.1969 86.2917V82.696C54.1969 82.1566 53.7597 81.7195 53.2203 81.7195Z" fill="#846F75"/>
<path d="M46.7797 18.2805C47.3191 18.2805 47.7562 17.8434 47.7562 17.304V14.6848H52.2437V17.304C52.2437 17.8434 52.6808 18.2805 53.2203 18.2805C53.7597 18.2805 54.1969 17.8434 54.1969 17.304V13.7083C54.1969 13.1688 53.7597 12.7317 53.2203 12.7317H46.7797C46.2402 12.7317 45.8031 13.1688 45.8031 13.7083V17.304C45.8031 17.8434 46.2402 18.2805 46.7797 18.2805Z" fill="#846F75"/>
<path d="M17.3039 47.7563C17.8433 47.7563 18.2805 47.3192 18.2805 46.7798C18.2805 46.2403 17.8433 45.8032 17.3039 45.8032H13.7082C13.1687 45.8032 12.7316 46.2403 12.7316 46.7798V53.2204C12.7316 53.7599 13.1687 54.197 13.7082 54.197H17.3039C17.8433 54.197 18.2805 53.7599 18.2805 53.2204C18.2805 52.681 17.8433 52.2439 17.3039 52.2439H14.6848V47.7563H17.3039Z" fill="#846F75"/>
<path d="M86.2918 45.8032H82.6961C82.1566 45.8032 81.7195 46.2403 81.7195 46.7798C81.7195 47.3192 82.1566 47.7563 82.6961 47.7563H85.3152V52.2439H82.6961C82.1566 52.2439 81.7195 52.681 81.7195 53.2204C81.7195 53.7599 82.1566 54.197 82.6961 54.197H86.2918C86.8312 54.197 87.2683 53.7599 87.2683 53.2204V46.7798C87.2683 46.2403 86.8312 45.8032 86.2918 45.8032Z" fill="#846F75"/>
<path d="M28.4668 74.7062L26.6148 76.5582L23.4418 73.3851L25.2937 71.5332C25.6754 71.1515 25.6754 70.5335 25.2937 70.1523C24.9121 69.771 24.2941 69.7707 23.9129 70.1523L21.3703 72.6949C20.9887 73.0765 20.9887 73.6945 21.3703 74.0757L25.9242 78.6296C26.1148 78.8203 26.3648 78.9156 26.6148 78.9156C26.8648 78.9156 27.1144 78.8203 27.3055 78.6296L29.848 76.0871C30.2297 75.7054 30.2297 75.0875 29.848 74.7062C29.4664 74.325 28.8484 74.3246 28.4668 74.7062Z" fill="#846F75"/>
<path d="M71.5332 25.2939L73.3851 23.4419L76.5582 26.615L74.7062 28.4669C74.3246 28.8486 74.3246 29.4666 74.7062 29.8478C74.8969 30.0384 75.1469 30.1337 75.3969 30.1337C75.6469 30.1337 75.8965 30.0384 76.0875 29.8478L78.6301 27.3052C79.0117 26.9236 79.0117 26.3056 78.6301 25.9244L74.0762 21.3705C73.6945 20.9888 73.0765 20.9888 72.6953 21.3705L70.1527 23.913C69.7711 24.2947 69.7711 24.9126 70.1527 25.2939C70.5344 25.6751 71.1515 25.6755 71.5332 25.2939Z" fill="#846F75"/>
<path d="M23.9129 29.8478C24.1035 30.0384 24.3535 30.1337 24.6035 30.1337C24.8535 30.1337 25.1031 30.0384 25.2941 29.8478C25.6758 29.4662 25.6758 28.8482 25.2941 28.4669L23.4422 26.615L26.6152 23.4419L28.4672 25.2939C28.8488 25.6755 29.4668 25.6755 29.848 25.2939C30.2293 24.9123 30.2297 24.2943 29.848 23.913L27.3055 21.3705C26.9238 20.9888 26.3059 20.9888 25.9246 21.3705L21.3703 25.9244C20.9887 26.306 20.9887 26.924 21.3703 27.3052L23.9129 29.8478Z" fill="#846F75"/>
<path d="M76.0871 70.1524C75.7055 69.7708 75.0875 69.7708 74.7062 70.1524C74.325 70.5341 74.3246 71.1521 74.7062 71.5333L76.5582 73.3853L73.3851 76.5583L71.5332 74.7063C71.1515 74.3247 70.5336 74.3247 70.1523 74.7063C69.7711 75.088 69.7707 75.706 70.1523 76.0872L72.6949 78.6298C72.8855 78.8204 73.1355 78.9157 73.3855 78.9157C73.6355 78.9157 73.8851 78.8204 74.0762 78.6298L78.6301 74.0759C79.0117 73.6942 79.0117 73.0763 78.6301 72.695L76.0871 70.1524Z" fill="#846F75"/>
</svg>
